<svg width="256" height="256" xmlns="http://www.w3.org/2000/svg">

 <g>
  <title>Layer 1</title>
  <rect stroke-width="20" rx="90" id="svg_2" height="236" width="236" y="10" x="10" stroke="#09337a" fill="#197fa8"/>
  <rect rx="21" id="svg_4" height="48" width="48" y="48" x="104" stroke-width="20" fill="#09337a"/>
  <path id="svg_8" d="m111.54423,147.95061" opacity="NaN" stroke-width="20" fill="#092487"/>
  <path id="svg_11" d="m93.18972,146.05187" opacity="NaN" stroke-width="20" fill="#092487"/>
  <path transform="rotate(-60, 82.4961, 157.373)" id="svg_15" d="m16.5933,157.93226c14.63907,-9.0254 41.03253,-16.72859 63.4861,-24.37348c26.11994,4.90601 48.6861,15.69913 68.31882,23.21632c-17.51106,8.69495 -42.7179,16.61368 -65.42593,24.41151c-24.47967,-7.13429 -45.41378,-15.28536 -66.37899,-23.25435l-0.00001,0z" stroke-width="20" fill="#09337a"/>
  <path transform="rotate(60, 173.438, 156.795)" id="svg_16" d="m107.53339,157.35364c14.63907,-9.0254 41.03253,-16.72859 63.4861,-24.37348c26.11994,4.90601 48.6861,15.69913 68.31882,23.21632c-17.51106,8.69495 -42.7179,16.61368 -65.42593,24.41151c-24.47967,-7.13429 -45.41378,-15.28536 -66.37899,-23.25435l-0.00001,0z" stroke-width="20" fill="#09337a"/>
 </g>
</svg>